<svg width="200" height="57" viewBox="0 0 200 57" xmlns="http://www.w3.org/2000/svg">
    <g fill="none" fill-rule="evenodd">
        <path fill="#33475B" d="M21.638 9.317v15.977H6.966V9.317H0v38.137h6.966V31.997h14.672v15.457h6.966V9.317zM50.898 35.126c0 3.183-2.58 5.763-5.763 5.763s-5.763-2.58-5.763-5.763V18.792h-6.608v16.334c.001 6.826 5.535 12.358 12.36 12.357 6.825-.001 12.356-5.533 12.357-12.357V18.792h-6.583v16.334zM99.853 20.474c0-3.348 2.215-4.41 4.642-4.41 1.956 0 4.54 1.489 6.228 3.294l4.328-5.099c-2.16-2.921-6.543-4.942-10.13-4.942-7.167 0-12.351 4.198-12.351 11.157 0 12.912 15.781 8.816 15.781 16.041 0 2.229-2.163 4.198-4.641 4.198-3.908 0-5.174-1.91-6.97-3.932l-4.802 4.994c3.072 3.771 6.86 5.685 11.4 5.685 6.809 0 12.287-4.248 12.287-10.89 0-14.334-15.782-9.88-15.782-16.096M197.485 41.362c-3.904 0-5.014-1.69-5.014-4.277v-11.45h6.068v-5.802h-6.068v-7.655l-6.7 3.006V38.51c0 5.965 4.116 8.972 9.761 8.972.886.016 1.77-.054 2.642-.211l1.635-6.017c-.737.05-1.584.102-2.324.102M76.007 40.83c-4.147 0-7.509-3.362-7.509-7.51 0-4.146 3.362-7.508 7.509-7.508s7.508 3.362 7.508 7.509-3.361 7.508-7.508 7.508m.04-21.846c-3.272 0-5.555.949-7.764 3.116V9.546h-6.617v23.266c0 8.71 6.297 14.676 13.372 14.676 7.85 0 14.754-6.072 14.754-14.25 0-8.074-6.355-14.252-13.744-14.252M141.638 32.809c0 4.147-3.362 7.508-7.508 7.508-4.147 0-7.509-3.361-7.509-7.508s3.362-7.509 7.509-7.509c4.146 0 7.508 3.362 7.508 7.509m6.266.082c0-8.191-6.89-14.25-14.754-14.25-7.075 0-13.372 5.966-13.372 14.676v23.28h6.618v-12.57c2.205 2.164 4.491 3.116 7.761 3.116 7.389 0 13.744-6.174 13.744-14.252"/>
        <path d="M167.004 40.181c-4.087 0-7.4-3.313-7.4-7.4 0-4.086 3.313-7.399 7.4-7.399 4.086 0 7.399 3.313 7.399 7.4 0 4.086-3.313 7.4-7.4 7.4m2.215-21.646v-6.58c1.775-.83 2.913-2.608 2.922-4.567v-.153c-.008-2.793-2.27-5.054-5.061-5.062h-.154c-2.792.008-5.054 2.27-5.062 5.062v.153c.01 1.96 1.147 3.738 2.922 4.566v6.581c-2.5.382-4.855 1.418-6.826 3.003L139.891 7.481c.129-.463.197-.942.205-1.423.003-3.153-2.55-5.713-5.704-5.717-3.153-.004-5.712 2.55-5.716 5.703-.004 3.154 2.55 5.713 5.703 5.717.992-.003 1.965-.268 2.822-.768l17.765 13.83c-3.275 4.94-3.187 11.383.222 16.232l-5.406 5.406c-.434-.138-.886-.212-1.342-.219-2.591 0-4.693 2.102-4.693 4.693 0 2.592 2.102 4.693 4.693 4.693 2.592 0 4.693-2.1 4.693-4.693-.006-.455-.08-.907-.218-1.341l5.348-5.348c6.329 4.834 15.378 3.622 20.212-2.707 4.834-6.328 3.623-15.378-2.706-20.212-1.916-1.463-4.168-2.423-6.55-2.791" fill="#FF7A59"/>
    </g>
</svg>
